<?xml version="1.0" encoding="UTF-8"?>
<svg id="Layer_1" xmlns="http://www.w3.org/2000/svg" version="1.1" xmlns:xlink="http://www.w3.org/1999/xlink" viewBox="0 0 300 100">
  <!-- Generator: Adobe Illustrator 30.2.1, SVG Export Plug-In . SVG Version: 2.1.1 Build 1)  -->
  <defs>
    <style>
      .st0 {
        display: none;
        fill-opacity: .8;
      }

      .st0, .st1 {
        fill: #fff;
      }

      .st2 {
        fill: #23bdee;
      }

      .st3 {
        fill: none;
      }

      .st4 {
        fill: #545567;
      }

      .st5 {
        fill: #595959;
      }

      .st6 {
        clip-path: url(#clippath);
      }
    </style>
    <clipPath id="clippath">
      <rect class="st3" x="39.25" y="36.25" width="27.5" height="27.5"/>
    </clipPath>
  </defs>
  <path class="st0" d="M280,0H20C8.95,0,0,8.95,0,20v60c0,11.05,8.95,20,20,20h260c11.05,0,20-8.95,20-20V20c0-11.05-8.95-20-20-20ZM152.74,47.28c.46,6.43-9.54,6.38-10,0-.06-.82-.12-1.65-.19-2.47-.01-.02-.03-.03-.04-.05-3.98-5.34-2.84-13.06-.96-18.99,1.69-5.36,9.76-4.39,9.82,1.33,0,.07,0,.13,0,.2,1.01.55,1.8,1.54,2.11,3.06.87,4.23.79,8.54-1.11,12.35.13,1.52.26,3.05.37,4.57Z"/>
  <path class="st5" d="M119.77,37.09c.99-1.06,1.7-2.01,2.11-2.86.42-.86.62-1.78.62-2.76,0-1.41-.5-2.53-1.49-3.36s-2.34-1.25-4.03-1.25c-1.06,0-2.11.18-3.17.55-1.04.35-1.9.82-2.57,1.42l1.03,2.26c1.54-1.17,3.06-1.75,4.58-1.75.85,0,1.49.2,1.92.6.45.38.67.96.67,1.73,0,.61-.16,1.22-.48,1.85-.3.61-.79,1.28-1.46,2.02l-5.76,6.19v2.28h11.38v-2.5h-7.51l4.15-4.42Z"/>
  <polygon class="st5" points="147.81 38.61 153.09 33 149.44 33 144.71 38.11 144.71 27.79 141.71 27.79 141.71 44.71 144.71 44.71 144.71 39.36 149.75 44.71 153.48 44.71 147.81 38.61"/>
  <path class="st5" d="M135.79,33.87c-.8-.46-1.73-.7-2.78-.7-1.2,0-2.21.29-3.02.86v-4.56h7.58v-2.4h-10.61v9.96h1.85c.46-.46.98-.82,1.56-1.06.59-.26,1.22-.38,1.87-.38.98,0,1.74.28,2.3.84.58.54.86,1.29.86,2.23s-.28,1.73-.84,2.26c-.56.53-1.37.79-2.42.79-1.6,0-3.17-.58-4.7-1.75l-1.03,2.26c.67.59,1.52,1.07,2.54,1.44,1.04.35,2.09.53,3.14.53,1.26,0,2.36-.23,3.29-.7.94-.46,1.67-1.12,2.18-1.97.51-.85.77-1.83.77-2.95,0-1.06-.22-1.99-.67-2.81-.43-.82-1.06-1.45-1.87-1.9Z"/>
  <path class="st4" d="M110.22,74l6.28-14.1h1.72l6.3,14.1h-2.12l-1.48-3.44h-7.14l-1.46,3.44h-2.1ZM117.34,62.2l-2.82,6.68h5.7l-2.84-6.68h-.04ZM129.83,74.18c-.8,0-1.55-.1-2.24-.3-.69-.21-1.27-.51-1.74-.88l.58-1.36c.49.35,1.03.61,1.62.8.6.19,1.2.28,1.8.28.71,0,1.24-.13,1.6-.38.36-.25.54-.59.54-1.02,0-.35-.12-.61-.36-.8-.24-.2-.6-.35-1.08-.46l-1.9-.38c-1.68-.35-2.52-1.21-2.52-2.6,0-.92.37-1.65,1.1-2.2.73-.55,1.69-.82,2.88-.82.68,0,1.33.1,1.94.3.63.2,1.15.5,1.56.9l-.58,1.36c-.4-.35-.86-.61-1.38-.8-.52-.19-1.03-.28-1.54-.28-.69,0-1.22.13-1.58.4-.36.25-.54.6-.54,1.04,0,.67.44,1.09,1.32,1.28l1.9.38c.87.17,1.52.47,1.96.88.45.41.68.97.68,1.68,0,.93-.37,1.67-1.1,2.2-.73.52-1.71.78-2.92.78ZM139.92,74.18c-.8,0-1.55-.1-2.24-.3-.69-.21-1.27-.51-1.74-.88l.58-1.36c.49.35,1.03.61,1.62.8.6.19,1.2.28,1.8.28.71,0,1.24-.13,1.6-.38.36-.25.54-.59.54-1.02,0-.35-.12-.61-.36-.8-.24-.2-.6-.35-1.08-.46l-1.9-.38c-1.68-.35-2.52-1.21-2.52-2.6,0-.92.37-1.65,1.1-2.2.73-.55,1.69-.82,2.88-.82.68,0,1.33.1,1.94.3.63.2,1.15.5,1.56.9l-.58,1.36c-.4-.35-.86-.61-1.38-.8s-1.03-.28-1.54-.28c-.69,0-1.22.13-1.58.4-.36.25-.54.6-.54,1.04,0,.67.44,1.09,1.32,1.28l1.9.38c.87.17,1.52.47,1.96.88.45.41.68.97.68,1.68,0,.93-.37,1.67-1.1,2.2-.73.52-1.71.78-2.92.78ZM146.4,61.98v-2.1h2.36v2.1h-2.36ZM146.59,74v-9.76h2.02v9.76h-2.02ZM155.27,74.18c-.8,0-1.55-.1-2.24-.3-.69-.21-1.27-.51-1.74-.88l.58-1.36c.49.35,1.03.61,1.62.8.6.19,1.2.28,1.8.28.71,0,1.24-.13,1.6-.38.36-.25.54-.59.54-1.02,0-.35-.12-.61-.36-.8-.24-.2-.6-.35-1.08-.46l-1.9-.38c-1.68-.35-2.52-1.21-2.52-2.6,0-.92.37-1.65,1.1-2.2s1.69-.82,2.88-.82c.68,0,1.33.1,1.94.3.63.2,1.15.5,1.56.9l-.58,1.36c-.4-.35-.86-.61-1.38-.8s-1.03-.28-1.54-.28c-.69,0-1.22.13-1.58.4-.36.25-.54.6-.54,1.04,0,.67.44,1.09,1.32,1.28l1.9.38c.87.17,1.52.47,1.96.88.45.41.68.97.68,1.68,0,.93-.37,1.67-1.1,2.2-.73.52-1.71.78-2.92.78ZM166,74.18c-1.23,0-2.14-.31-2.74-.94-.6-.63-.9-1.53-.9-2.72v-4.72h-1.9v-1.56h1.9v-2.94h2.02v2.94h3.02v1.56h-3.02v4.56c0,.71.15,1.24.44,1.6.31.36.8.54,1.48.54.21,0,.42-.02.62-.06.2-.05.4-.11.6-.18l.32,1.52c-.2.12-.48.21-.84.28-.35.08-.68.12-1,.12ZM174.02,74.18c-1.6,0-2.86-.45-3.78-1.34-.92-.91-1.38-2.14-1.38-3.7,0-1,.2-1.88.6-2.64.41-.77.98-1.37,1.7-1.8.72-.43,1.55-.64,2.48-.64,1.35,0,2.41.43,3.18,1.3.77.85,1.16,2.03,1.16,3.54v.68h-7.16c.15,2.03,1.22,3.04,3.22,3.04.56,0,1.11-.09,1.64-.26.55-.17,1.06-.46,1.54-.86l.6,1.4c-.44.4-1.01.71-1.7.94-.69.23-1.39.34-2.1.34ZM173.73,65.48c-.84,0-1.51.26-2,.78-.49.52-.79,1.21-.9,2.08h5.46c-.04-.91-.28-1.61-.72-2.1-.44-.51-1.05-.76-1.84-.76ZM184.31,74.18c-.85,0-1.61-.2-2.26-.6-.64-.41-1.14-1-1.5-1.76s-.54-1.66-.54-2.7.18-1.93.54-2.68c.36-.76.86-1.35,1.5-1.76s1.39-.62,2.26-.62c.73,0,1.39.16,1.96.48.57.32,1,.75,1.28,1.3v-5.94h2.02v14.1h-1.98v-1.7c-.28.59-.71,1.05-1.3,1.38-.57.33-1.23.5-1.98.5ZM184.83,72.62c.83,0,1.49-.3,2-.9.51-.6.76-1.47.76-2.6s-.25-1.99-.76-2.58c-.51-.6-1.17-.9-2-.9s-1.51.3-2.02.9c-.51.59-.76,1.45-.76,2.58s.25,2,.76,2.6c.51.6,1.18.9,2.02.9ZM203.38,74.18c-1.11,0-2.12-.14-3.04-.42-.92-.29-1.7-.7-2.34-1.22l.66-1.64c.67.51,1.38.89,2.14,1.14.76.25,1.62.38,2.58.38,1.13,0,1.97-.2,2.5-.6.55-.41.82-.95.82-1.6,0-.53-.19-.95-.58-1.26-.39-.32-1.03-.57-1.94-.76l-2.14-.44c-1.27-.27-2.21-.71-2.84-1.32-.61-.61-.92-1.44-.92-2.48,0-.84.22-1.58.66-2.22.45-.64,1.08-1.13,1.88-1.48.8-.36,1.72-.54,2.76-.54.96,0,1.85.15,2.66.44.83.28,1.53.69,2.1,1.24l-.68,1.58c-1.13-1-2.5-1.5-4.1-1.5-.99,0-1.77.22-2.36.66-.57.44-.86,1.03-.86,1.76,0,.56.18,1.01.54,1.34.36.33.96.59,1.8.76l2.12.44c1.33.28,2.33.71,2.98,1.3.65.57.98,1.35.98,2.34,0,.83-.22,1.55-.66,2.16-.44.61-1.06,1.09-1.86,1.44-.8.33-1.75.5-2.86.5ZM215.4,74.18c-1.23,0-2.14-.31-2.74-.94-.6-.63-.9-1.53-.9-2.72v-4.72h-1.9v-1.56h1.9v-2.94h2.02v2.94h3.02v1.56h-3.02v4.56c0,.71.15,1.24.44,1.6.31.36.8.54,1.48.54.21,0,.42-.02.62-.06.2-.05.4-.11.6-.18l.32,1.52c-.2.12-.48.21-.84.28-.35.08-.68.12-1,.12ZM222.43,74.18c-2.36,0-3.54-1.31-3.54-3.94v-6h2.02v6.02c0,.79.16,1.37.48,1.74.32.37.83.56,1.52.56.76,0,1.37-.25,1.84-.76.48-.51.72-1.19.72-2.04v-5.52h2.02v9.76h-1.96v-1.56c-.32.57-.75,1.01-1.28,1.3-.53.29-1.14.44-1.82.44ZM234.45,74.18c-.85,0-1.61-.2-2.26-.6-.64-.41-1.14-1-1.5-1.76s-.54-1.66-.54-2.7.18-1.93.54-2.68c.36-.76.86-1.35,1.5-1.76s1.39-.62,2.26-.62c.73,0,1.39.16,1.96.48.57.32,1,.75,1.28,1.3v-5.94h2.02v14.1h-1.98v-1.7c-.28.59-.71,1.05-1.3,1.38-.57.33-1.23.5-1.98.5ZM234.97,72.62c.83,0,1.49-.3,2-.9.51-.6.76-1.47.76-2.6s-.25-1.99-.76-2.58c-.51-.6-1.17-.9-2-.9s-1.51.3-2.02.9c-.51.59-.76,1.45-.76,2.58s.25,2,.76,2.6c.51.6,1.18.9,2.02.9ZM247.53,74.18c-1.6,0-2.86-.45-3.78-1.34-.92-.91-1.38-2.14-1.38-3.7,0-1,.2-1.88.6-2.64.41-.77.98-1.37,1.7-1.8.72-.43,1.55-.64,2.48-.64,1.35,0,2.41.43,3.18,1.3.77.85,1.16,2.03,1.16,3.54v.68h-7.16c.15,2.03,1.22,3.04,3.22,3.04.56,0,1.11-.09,1.64-.26.55-.17,1.06-.46,1.54-.86l.6,1.4c-.44.4-1.01.71-1.7.94-.69.23-1.39.34-2.1.34ZM247.23,65.48c-.84,0-1.51.26-2,.78-.49.52-.79,1.21-.9,2.08h5.46c-.04-.91-.28-1.61-.72-2.1-.44-.51-1.05-.76-1.84-.76ZM254.09,74v-9.76h1.96v1.62c.33-.59.79-1.03,1.36-1.34.59-.31,1.24-.46,1.96-.46,2.31,0,3.46,1.31,3.46,3.92v6.02h-2.02v-5.9c0-.84-.17-1.45-.5-1.84-.32-.39-.83-.58-1.52-.58-.81,0-1.47.26-1.96.78-.48.51-.72,1.18-.72,2.02v5.52h-2.02ZM270.17,74.18c-1.23,0-2.14-.31-2.74-.94-.6-.63-.9-1.53-.9-2.72v-4.72h-1.9v-1.56h1.9v-2.94h2.02v2.94h3.02v1.56h-3.02v4.56c0,.71.15,1.24.44,1.6.31.36.8.54,1.48.54.21,0,.42-.02.62-.06.2-.05.4-.11.6-.18l.32,1.52c-.2.12-.48.21-.84.28-.35.08-.68.12-1,.12Z"/>
  <rect class="st2" x="28" y="25" width="50" height="50" rx="8" ry="8"/>
  <g class="st6">
    <g>
      <path class="st1" d="M46.12,36.25c-.54,0-.98.44-.98.98v1.96h1.96v-1.96c0-.54-.44-.98-.98-.98Z"/>
      <path class="st1" d="M59.88,36.25c-.54,0-.98.44-.98.98v1.96h1.96v-1.96c0-.54-.44-.98-.98-.98Z"/>
      <path class="st1" d="M63.8,39.2h-2.95v3.93c0,.54-.44.98-.98.98s-.98-.44-.98-.98v-3.93h-11.79v3.93c0,.54-.44.98-.98.98s-.98-.44-.98-.98v-3.93h-2.95c-1.63,0-2.95,1.32-2.95,2.95v18.66c0,1.63,1.32,2.95,2.95,2.95h21.61c1.63,0,2.95-1.32,2.95-2.95v-18.66c0-1.63-1.32-2.95-2.95-2.95ZM64.79,60.8c0,.54-.44.98-.98.98h-21.61c-.54,0-.98-.44-.98-.98v-12.77h23.57v12.77Z"/>
      <path class="st1" d="M47.11,50h-1.96c-.54,0-.98.44-.98.98s.44.98.98.98h1.96c.54,0,.98-.44.98-.98s-.44-.98-.98-.98Z"/>
      <path class="st1" d="M53.98,50h-1.96c-.54,0-.98.44-.98.98s.44.98.98.98h1.96c.54,0,.98-.44.98-.98s-.44-.98-.98-.98Z"/>
      <path class="st1" d="M60.86,50h-1.96c-.54,0-.98.44-.98.98s.44.98.98.98h1.96c.54,0,.98-.44.98-.98s-.44-.98-.98-.98Z"/>
      <path class="st1" d="M47.11,53.93h-1.96c-.54,0-.98.44-.98.98s.44.98.98.98h1.96c.54,0,.98-.44.98-.98s-.44-.98-.98-.98Z"/>
      <path class="st1" d="M53.98,53.93h-1.96c-.54,0-.98.44-.98.98s.44.98.98.98h1.96c.54,0,.98-.44.98-.98s-.44-.98-.98-.98Z"/>
      <path class="st1" d="M60.86,53.93h-1.96c-.54,0-.98.44-.98.98s.44.98.98.98h1.96c.54,0,.98-.44.98-.98s-.44-.98-.98-.98Z"/>
      <path class="st1" d="M47.11,57.86h-1.96c-.54,0-.98.44-.98.98s.44.98.98.98h1.96c.54,0,.98-.44.98-.98s-.44-.98-.98-.98Z"/>
      <path class="st1" d="M53.98,57.86h-1.96c-.54,0-.98.44-.98.98s.44.98.98.98h1.96c.54,0,.98-.44.98-.98s-.44-.98-.98-.98Z"/>
      <path class="st1" d="M60.86,57.86h-1.96c-.54,0-.98.44-.98.98s.44.98.98.98h1.96c.54,0,.98-.44.98-.98s-.44-.98-.98-.98Z"/>
    </g>
  </g>
</svg>