<?xml version="1.0" encoding="UTF-8"?>
<svg id="Layer_1" xmlns="http://www.w3.org/2000/svg" version="1.1" viewBox="0 0 390 187">
  <!-- Generator: Adobe Illustrator 30.2.1, SVG Export Plug-In . SVG Version: 2.1.1 Build 1)  -->
  <defs>
    <style>
      .st0 {
        fill: #d8587e;
      }

      .st1, .st2 {
        fill: #fff;
      }

      .st3 {
        fill: none;
      }

      .st4 {
        fill: #2ebb5e;
        stroke: #fbecd7;
        stroke-width: 2px;
      }

      .st5 {
        fill: #545567;
      }

      .st2 {
        fill-opacity: .8;
      }
    </style>
  </defs>
  <rect class="st2" width="390" height="187" rx="20" ry="20"/>
  <path class="st5" d="M110.08,79v-12.36h-5v-1.74h12.06v1.74h-5v12.36h-2.06ZM121.74,79.18c-.99,0-1.84-.21-2.56-.62s-1.28-.99-1.68-1.74c-.39-.76-.58-1.66-.58-2.7s.19-1.93.58-2.68c.4-.76.96-1.35,1.68-1.76s1.57-.62,2.56-.62,1.8.21,2.52.62,1.28,1,1.68,1.76c.4.75.6,1.64.6,2.68s-.2,1.94-.6,2.7c-.4.75-.96,1.33-1.68,1.74s-1.56.62-2.52.62ZM121.74,77.62c.83,0,1.49-.3,2-.9.51-.6.76-1.47.76-2.6s-.25-1.99-.76-2.58c-.51-.6-1.17-.9-2-.9s-1.51.3-2.02.9c-.51.59-.76,1.45-.76,2.58s.25,2,.76,2.6c.51.6,1.18.9,2.02.9ZM132.93,79.18c-.85,0-1.61-.2-2.26-.6-.64-.41-1.14-1-1.5-1.76s-.54-1.66-.54-2.7.18-1.93.54-2.68c.36-.76.86-1.35,1.5-1.76s1.39-.62,2.26-.62c.73,0,1.39.16,1.96.48.57.32,1,.75,1.28,1.3v-5.94h2.02v14.1h-1.98v-1.7c-.28.59-.71,1.05-1.3,1.38-.57.33-1.23.5-1.98.5ZM133.45,77.62c.83,0,1.49-.3,2-.9.51-.6.76-1.47.76-2.6s-.25-1.99-.76-2.58c-.51-.6-1.17-.9-2-.9s-1.51.3-2.02.9c-.51.59-.76,1.45-.76,2.58s.25,2,.76,2.6c.51.6,1.18.9,2.02.9ZM144.55,79.18c-.68,0-1.29-.13-1.82-.4-.53-.27-.96-.63-1.28-1.08-.31-.45-.46-.97-.46-1.54,0-.72.18-1.29.54-1.7.37-.41.98-.71,1.82-.9.85-.19,2-.28,3.44-.28h.68v-.52c0-.76-.16-1.31-.48-1.64-.32-.33-.85-.5-1.58-.5-.56,0-1.12.09-1.68.26-.56.16-1.13.42-1.72.78l-.62-1.42c.51-.36,1.14-.65,1.9-.86.76-.21,1.49-.32,2.18-.32,1.33,0,2.32.32,2.96.96.64.63.96,1.61.96,2.96v6.02h-1.9v-1.62c-.24.56-.61,1-1.12,1.32-.51.32-1.11.48-1.82.48ZM144.95,77.74c.72,0,1.32-.25,1.8-.76.48-.51.72-1.15.72-1.92v-.54h-.66c-.97,0-1.74.05-2.3.14-.55.09-.94.25-1.18.48-.23.21-.34.51-.34.9,0,.51.17.92.52,1.24.35.31.83.46,1.44.46ZM153.47,82.6l1.74-3.86-4.08-9.5h2.16l3,7.42,3.04-7.42h2.08l-5.82,13.36h-2.12ZM172.04,79.18c-.68,0-1.29-.13-1.82-.4-.53-.27-.96-.63-1.28-1.08-.31-.45-.46-.97-.46-1.54,0-.72.18-1.29.54-1.7.37-.41.98-.71,1.82-.9.85-.19,2-.28,3.44-.28h.68v-.52c0-.76-.16-1.31-.48-1.64-.32-.33-.85-.5-1.58-.5-.56,0-1.12.09-1.68.26-.56.16-1.13.42-1.72.78l-.62-1.42c.51-.36,1.14-.65,1.9-.86.76-.21,1.49-.32,2.18-.32,1.33,0,2.32.32,2.96.96.64.63.96,1.61.96,2.96v6.02h-1.9v-1.62c-.24.56-.61,1-1.12,1.32-.51.32-1.11.48-1.82.48ZM172.44,77.74c.72,0,1.32-.25,1.8-.76.48-.51.72-1.15.72-1.92v-.54h-.66c-.97,0-1.74.05-2.3.14-.55.09-.94.25-1.18.48-.23.21-.34.51-.34.9,0,.51.17.92.52,1.24.35.31.83.46,1.44.46ZM184.22,79.18c-1.23,0-2.14-.31-2.74-.94-.6-.63-.9-1.53-.9-2.72v-4.72h-1.9v-1.56h1.9v-2.94h2.02v2.94h3.02v1.56h-3.02v4.56c0,.71.15,1.24.44,1.6.31.36.8.54,1.48.54.21,0,.42-.02.62-.06.2-.05.4-.11.6-.18l.32,1.52c-.2.12-.48.21-.84.28-.35.08-.68.12-1,.12ZM194.34,79v-1.74h3.2v-9.96l-2.5,1.56-.84-1.54,3.94-2.42h1.46v12.36h3v1.74h-8.26ZM206.09,79v-1.54l4.7-5.04c.65-.71,1.12-1.35,1.4-1.92.29-.57.44-1.15.44-1.74,0-1.52-.89-2.28-2.68-2.28-1.36,0-2.58.51-3.66,1.54l-.74-1.58c.53-.52,1.21-.93,2.04-1.24.83-.32,1.69-.48,2.58-.48,1.45,0,2.57.33,3.34,1,.79.67,1.18,1.62,1.18,2.86,0,.84-.21,1.66-.62,2.46-.4.8-1.03,1.65-1.9,2.56l-3.48,3.66h6.56v1.74h-9.16ZM217.96,79v-2.38h2.38v2.38h-2.38ZM227.93,79.18c-1.64,0-2.89-.62-3.76-1.86-.85-1.25-1.28-3.05-1.28-5.38s.43-4.17,1.28-5.38c.87-1.23,2.12-1.84,3.76-1.84s2.91.61,3.76,1.84c.85,1.21,1.28,3,1.28,5.36s-.43,4.15-1.3,5.4c-.85,1.24-2.1,1.86-3.74,1.86ZM227.93,77.46c1.01,0,1.77-.45,2.26-1.34.49-.89.74-2.29.74-4.2s-.25-3.29-.74-4.16c-.48-.88-1.23-1.32-2.26-1.32s-1.77.44-2.26,1.32c-.49.88-.74,2.27-.74,4.16s.25,3.31.74,4.2c.49.89,1.25,1.34,2.26,1.34ZM240.32,79.18c-1.64,0-2.89-.62-3.76-1.86-.85-1.25-1.28-3.05-1.28-5.38s.43-4.17,1.28-5.38c.87-1.23,2.12-1.84,3.76-1.84s2.91.61,3.76,1.84c.85,1.21,1.28,3,1.28,5.36s-.43,4.15-1.3,5.4c-.85,1.24-2.1,1.86-3.74,1.86ZM240.32,77.46c1.01,0,1.77-.45,2.26-1.34.49-.89.74-2.29.74-4.2s-.25-3.29-.74-4.16c-.48-.88-1.23-1.32-2.26-1.32s-1.77.44-2.26,1.32c-.49.88-.74,2.27-.74,4.16s.25,3.31.74,4.2c.49.89,1.25,1.34,2.26,1.34ZM254.01,79v-14.1h5.84c1.52,0,2.69.38,3.52,1.14.83.75,1.24,1.8,1.24,3.16s-.41,2.44-1.24,3.2c-.83.75-2,1.12-3.52,1.12h-3.76v5.48h-2.08ZM256.09,71.86h3.46c2.03,0,3.04-.89,3.04-2.66s-1.01-2.64-3.04-2.64h-3.46v5.3ZM267.28,79v-14.1h1.74l5.22,9.74,5.2-9.74h1.7v14.1h-1.86v-10.34l-4.42,8.18h-1.26l-4.44-8.14v10.3h-1.88Z"/>
  <path class="st0" d="M130,109h130c13.81,0,25,11.19,25,25h0c0,13.81-11.19,25-25,25h-130c-13.81,0-25-11.19-25-25h0c0-13.81,11.19-25,25-25Z"/>
  <path class="st1" d="M152.98,141.18l-.18-2.1,1.42-.08c1.19-.08,1.78-.73,1.78-1.96v-10.14h2.56v10.12c0,2.53-1.31,3.89-3.94,4.08l-1.64.08ZM165.87,141.2c-1.01,0-1.89-.21-2.64-.62-.75-.41-1.33-1-1.74-1.76-.41-.77-.62-1.68-.62-2.72s.21-1.94.62-2.7c.41-.76.99-1.35,1.74-1.76.75-.41,1.63-.62,2.64-.62s1.89.21,2.64.62c.75.41,1.33,1,1.74,1.76.41.76.62,1.66.62,2.7s-.21,1.95-.62,2.72c-.41.76-.99,1.35-1.74,1.76-.75.41-1.63.62-2.64.62ZM165.87,139.3c.75,0,1.35-.27,1.8-.8.45-.55.68-1.35.68-2.4s-.23-1.86-.68-2.38c-.45-.53-1.05-.8-1.8-.8s-1.35.27-1.8.8c-.45.52-.68,1.31-.68,2.38s.23,1.85.68,2.4c.45.53,1.05.8,1.8.8ZM172.77,129.12v-2.44h2.8v2.44h-2.8ZM172.93,141v-9.78h2.5v9.78h-2.5ZM178.03,141v-9.78h2.44v1.52c.33-.56.78-.99,1.34-1.28.57-.29,1.21-.44,1.92-.44,2.31,0,3.46,1.34,3.46,4.02v5.96h-2.5v-5.84c0-.76-.15-1.31-.44-1.66-.28-.35-.72-.52-1.32-.52-.73,0-1.32.23-1.76.7-.43.45-.64,1.06-.64,1.82v5.5h-2.5ZM195.36,141v-14.1h1.92l7.58,9.84v-9.84h2.38v14.1h-1.9l-7.6-9.88v9.88h-2.38ZM214.54,141.2c-1.01,0-1.89-.21-2.64-.62-.75-.41-1.33-1-1.74-1.76-.41-.77-.62-1.68-.62-2.72s.21-1.94.62-2.7c.41-.76.99-1.35,1.74-1.76.75-.41,1.63-.62,2.64-.62s1.89.21,2.64.62c.75.41,1.33,1,1.74,1.76.41.76.62,1.66.62,2.7s-.21,1.95-.62,2.72c-.41.76-.99,1.35-1.74,1.76-.75.41-1.63.62-2.64.62ZM214.54,139.3c.75,0,1.35-.27,1.8-.8.45-.55.68-1.35.68-2.4s-.23-1.86-.68-2.38c-.45-.53-1.05-.8-1.8-.8s-1.35.27-1.8.8c-.45.52-.68,1.31-.68,2.38s.23,1.85.68,2.4c.45.53,1.05.8,1.8.8ZM224.11,141l-3.86-9.78h2.56l2.5,6.88,2.52-6.88h1.76l2.52,6.92,2.5-6.92h2.42l-3.84,9.78h-2.18l-2.38-6.3-2.34,6.3h-2.18Z"/>
  <circle class="st3" cx="54" cy="54" r="28"/>
  <circle class="st4" cx="73" cy="75" r="9"/>
  <g>
    <path d="M77.93,49.97c-.59,2.23-2.35,4.3-6.33,4.3-4.53,0-6.72-3.13-6.72-6.6s2.41-6.62,6.88-6.62c3.88,0,5.82,2.16,6.19,4.28h-3.12c-.26-.73-.95-1.89-3.11-1.89-2.37,0-3.6,1.81-3.6,4.12s1.13,4.34,3.62,4.34c1.8,0,2.6-.7,3.09-1.93h3.1Z"/>
    <path d="M90.08,49.34c0,2.86-1.98,4.91-5.43,4.91s-5.24-2.33-5.24-4.91,1.83-4.9,5.36-4.9,5.31,2.59,5.31,4.9ZM82.4,49.34c0,1.45.8,2.69,2.34,2.69s2.31-1.22,2.31-2.64-.7-2.73-2.33-2.73-2.32,1.24-2.32,2.68Z"/>
    <path d="M92.02,47.1c0-.81,0-1.6-.02-2.4h2.81c.05.36.07.76.08,1.1.48-.67,1.36-1.35,2.83-1.35,1.64,0,2.44.72,2.81,1.52.49-.69,1.35-1.52,3.13-1.52,1.95,0,3.48,1.16,3.48,3.94v5.62h-2.89v-5.55c0-.81-.28-1.78-1.5-1.78-1.06,0-1.7.66-1.7,2.2v5.14h-2.91v-5.56c0-.92-.33-1.77-1.5-1.77s-1.71.86-1.71,2.2v5.13h-2.91v-6.9Z"/>
    <path d="M109.68,47.1c0-.81,0-1.6-.02-2.4h2.81c.05.36.07.76.08,1.1.48-.67,1.36-1.35,2.83-1.35,1.64,0,2.44.72,2.81,1.52.49-.69,1.35-1.52,3.13-1.52,1.95,0,3.48,1.16,3.48,3.94v5.62h-2.89v-5.55c0-.81-.28-1.78-1.5-1.78-1.06,0-1.7.66-1.7,2.2v5.14h-2.91v-5.56c0-.92-.33-1.77-1.5-1.77s-1.71.86-1.71,2.2v5.13h-2.91v-6.9Z"/>
    <path d="M136.78,51.29c0,.9-.02,1.81,0,2.71h-2.87c-.04-.25-.04-.68-.06-1.09-.47.73-1.17,1.34-3.13,1.34s-3.47-1.13-3.47-3.87v-5.68h2.94v5.2c0,1.24.45,2.07,1.67,2.07,1.43,0,1.96-.84,1.96-2.97v-4.3h2.94v6.6Z"/>
    <path d="M139.25,47.04c0-.79,0-1.68-.02-2.35h2.87c.04.26.07.83.09,1.2.43-.64,1.28-1.45,3.09-1.45,2.29,0,3.65,1.42,3.65,3.82v5.74h-2.97v-5.27c0-1.06-.41-2-1.73-2s-2.01.95-2.01,2.63v4.64h-2.96v-6.96Z"/>
    <path d="M151.47,40.59h2.94v2.35h-2.94v-2.35ZM151.47,44.7h2.94v9.3h-2.94v-9.3Z"/>
    <path d="M166.46,50.86c-.38,1.76-1.89,3.39-4.94,3.39-3.58,0-5.16-2.25-5.16-4.92,0-2.52,1.79-4.89,5.17-4.89,3.69,0,4.76,2.41,4.87,3.44h-2.94c-.17-.51-.63-1.23-1.91-1.23-1.52,0-2.2,1.13-2.2,2.66s.63,2.72,2.18,2.72c1.06,0,1.61-.39,1.98-1.18h2.94Z"/>
    <path d="M177.62,51.39c0,1.21.05,2.41.07,2.61h-2.78c-.07-.22-.09-.79-.11-1.05-.5.8-1.57,1.3-3.32,1.3-2.54,0-3.57-1.55-3.57-3.04,0-2.44,2.14-3.12,4.88-3.12h1.95v-.29c0-.75-.33-1.36-1.69-1.36-1.27,0-1.55.48-1.67,1.01h-2.94c.08-1.15.89-3,4.57-3,4.04,0,4.61,1.9,4.61,3.46v3.49ZM174.74,49.95c-.21-.02-.86-.02-1.9-.02-1.5,0-2.08.39-2.08,1.13,0,.6.49,1.09,1.56,1.09,1.61,0,2.42-.74,2.42-2.06v-.14Z"/>
    <path d="M178.98,44.7h1.67v-2.74h2.96v2.74h2.15v2.14h-2.15v3.92c0,.79.17,1.16,1.07,1.16.25,0,.54,0,.8-.06v2.02c-.5.14-1.18.21-1.87.21-2.29,0-2.96-.99-2.96-2.81v-4.43h-1.67v-2.14Z"/>
    <path d="M187.52,40.59h2.94v2.35h-2.94v-2.35ZM187.52,44.7h2.94v9.3h-2.94v-9.3Z"/>
    <path d="M203.08,49.34c0,2.86-1.98,4.91-5.43,4.91s-5.24-2.33-5.24-4.91,1.83-4.9,5.36-4.9,5.31,2.59,5.31,4.9ZM195.4,49.34c0,1.45.8,2.69,2.34,2.69s2.31-1.22,2.31-2.64-.7-2.73-2.33-2.73-2.32,1.24-2.32,2.68Z"/>
    <path d="M205.02,47.04c0-.79,0-1.68-.02-2.35h2.87c.04.26.07.83.09,1.2.43-.64,1.28-1.45,3.09-1.45,2.29,0,3.65,1.42,3.65,3.82v5.74h-2.97v-5.27c0-1.06-.41-2-1.73-2s-2.01.95-2.01,2.63v4.64h-2.96v-6.96Z"/>
    <path d="M234.15,49.14c0-2.19.02-4.46.09-5.87h-.02c-.63,2.34-1.82,6.06-3.32,10.72h-2.71c-1.16-4.09-2.49-8.32-3.17-10.72h-.02c.09,1.47.21,3.94.21,6.1v4.62h-2.77v-12.68h4.45c1.27,3.93,2.44,7.37,2.82,9.11h.02c.54-2,1.68-5.33,2.92-9.11h4.47v12.68h-2.97v-4.86Z"/>
    <path d="M249.09,51.39c0,1.21.05,2.41.07,2.61h-2.78c-.07-.22-.09-.79-.11-1.05-.5.8-1.57,1.3-3.32,1.3-2.54,0-3.57-1.55-3.57-3.04,0-2.44,2.14-3.12,4.88-3.12h1.95v-.29c0-.75-.33-1.36-1.69-1.36-1.27,0-1.55.48-1.67,1.01h-2.94c.08-1.15.89-3,4.57-3,4.04,0,4.61,1.9,4.61,3.46v3.49ZM246.22,49.95c-.21-.02-.86-.02-1.9-.02-1.5,0-2.08.39-2.08,1.13,0,.6.49,1.09,1.56,1.09,1.61,0,2.42-.74,2.42-2.06v-.14Z"/>
    <path d="M253.77,51.14c.24.66.86,1.1,2.11,1.1s1.6-.39,1.6-.83c0-.52-.41-.77-2.27-1.03-3.55-.5-4.04-1.81-4.04-2.94,0-1.41,1.07-2.99,4.3-2.99s4.44,1.55,4.57,2.88h-2.9c-.13-.44-.46-.94-1.78-.94-1.11,0-1.31.42-1.31.75,0,.39.3.62,2.03.88,3.78.57,4.28,1.84,4.28,3.13,0,1.7-1.29,3.1-4.68,3.1-2.54,0-4.54-1.07-4.83-3.11h2.92Z"/>
    <path d="M261.15,44.7h1.67v-2.74h2.96v2.74h2.15v2.14h-2.15v3.92c0,.79.17,1.16,1.07,1.16.25,0,.54,0,.8-.06v2.02c-.5.14-1.18.21-1.87.21-2.29,0-2.96-.99-2.96-2.81v-4.43h-1.67v-2.14Z"/>
    <path d="M271.93,50.06c.08,1.12.89,2,2.29,2,1.11,0,1.64-.34,1.97-.91h2.94c-.56,1.65-1.96,3.1-4.95,3.1-3.81,0-5.18-2.53-5.18-4.89,0-2.62,1.76-4.92,5.16-4.92,3.62,0,5.08,2.49,5.08,4.92,0,.23,0,.4-.02.7h-7.3ZM276.26,48.26c-.06-.71-.44-1.76-2.1-1.76-1.55,0-2.11.84-2.19,1.76h4.29Z"/>
    <path d="M281.14,47.22c0-.84,0-1.69-.02-2.53h2.88c.05.33.08,1.36.08,1.86.52-1.23,1.66-2.14,3.59-2.1v2.68c-2.1-.03-3.59.81-3.59,3.46v3.4h-2.94v-6.78Z"/>
    <path d="M306.99,49.97c-.59,2.23-2.35,4.3-6.33,4.3-4.53,0-6.72-3.13-6.72-6.6s2.41-6.62,6.88-6.62c3.88,0,5.82,2.16,6.19,4.28h-3.12c-.26-.73-.95-1.89-3.11-1.89-2.37,0-3.6,1.81-3.6,4.12s1.13,4.34,3.62,4.34c1.8,0,2.6-.7,3.09-1.93h3.1Z"/>
    <path d="M308.81,54v-13.41h2.94v13.41h-2.94Z"/>
    <path d="M323.51,51.39c0,1.21.05,2.41.07,2.61h-2.78c-.07-.22-.09-.79-.11-1.05-.5.8-1.57,1.3-3.32,1.3-2.54,0-3.57-1.55-3.57-3.04,0-2.44,2.14-3.12,4.88-3.12h1.95v-.29c0-.75-.33-1.36-1.69-1.36-1.27,0-1.55.48-1.67,1.01h-2.94c.08-1.15.89-3,4.57-3,4.04,0,4.61,1.9,4.61,3.46v3.49ZM320.63,49.95c-.21-.02-.86-.02-1.9-.02-1.5,0-2.08.39-2.08,1.13,0,.6.49,1.09,1.56,1.09,1.61,0,2.42-.74,2.42-2.06v-.14Z"/>
    <path d="M328.18,51.14c.24.66.86,1.1,2.11,1.1s1.6-.39,1.6-.83c0-.52-.41-.77-2.27-1.03-3.55-.5-4.04-1.81-4.04-2.94,0-1.41,1.07-2.99,4.3-2.99s4.44,1.55,4.57,2.88h-2.9c-.13-.44-.46-.94-1.78-.94-1.11,0-1.31.42-1.31.75,0,.39.3.62,2.03.88,3.78.57,4.28,1.84,4.28,3.13,0,1.7-1.29,3.1-4.68,3.1-2.54,0-4.54-1.07-4.83-3.11h2.92Z"/>
    <path d="M338.98,51.14c.24.66.86,1.1,2.11,1.1s1.6-.39,1.6-.83c0-.52-.41-.77-2.27-1.03-3.55-.5-4.04-1.81-4.04-2.94,0-1.41,1.07-2.99,4.3-2.99s4.44,1.55,4.57,2.88h-2.9c-.13-.44-.46-.94-1.78-.94-1.11,0-1.31.42-1.31.75,0,.39.3.62,2.03.88,3.78.57,4.28,1.84,4.28,3.13,0,1.7-1.29,3.1-4.68,3.1-2.54,0-4.54-1.07-4.83-3.11h2.92Z"/>
  </g>
</svg>